<?xml version="1.0" encoding="UTF-8" standalone="no"?>
<!-- Created with Inkscape (http://www.inkscape.org/) -->

<svg
   xmlns:dc="http://purl.org/dc/elements/1.1/"
   xmlns:cc="http://creativecommons.org/ns#"
   xmlns:rdf="http://www.w3.org/1999/02/22-rdf-syntax-ns#"
   xmlns:svg="http://www.w3.org/2000/svg"
   xmlns="http://www.w3.org/2000/svg"
   xmlns:sodipodi="http://sodipodi.sourceforge.net/DTD/sodipodi-0.dtd"
   xmlns:inkscape="http://www.inkscape.org/namespaces/inkscape"
   width="1920"
   height="1080"
   viewBox="0 0 507.99999 285.75001"
   version="1.1"
   id="svg8"
   inkscape:export-filename="C:\Users\stephen\Documents\stephenandcaroline.fun\bg.png"
   inkscape:export-xdpi="90"
   inkscape:export-ydpi="90"
   inkscape:version="0.92.2 (5c3e80d, 2017-08-06)"
   sodipodi:docname="bg.svg">
  <defs
     id="defs2" />
  <sodipodi:namedview
     id="base"
     pagecolor="#ffffff"
     bordercolor="#666666"
     borderopacity="1.0"
     inkscape:pageopacity="0.0"
     inkscape:pageshadow="2"
     inkscape:zoom="0.49497475"
     inkscape:cx="930.73157"
     inkscape:cy="511.08587"
     inkscape:document-units="mm"
     inkscape:current-layer="layer1"
     showgrid="false"
     units="px"
     showguides="false"
     inkscape:window-width="1920"
     inkscape:window-height="1017"
     inkscape:window-x="-8"
     inkscape:window-y="-8"
     inkscape:window-maximized="1" />
  <metadata
     id="metadata5">
    <rdf:RDF>
      <cc:Work
         rdf:about="">
        <dc:format>image/svg+xml</dc:format>
        <dc:type
           rdf:resource="http://purl.org/dc/dcmitype/StillImage" />
        <dc:title></dc:title>
      </cc:Work>
    </rdf:RDF>
  </metadata>
  <g
     inkscape:label="Layer 1"
     inkscape:groupmode="layer"
     id="layer1"
     transform="translate(0,-11.249983)">
    <path
       sodipodi:type="star"
       style="fill:#eeeeee;fill-opacity:1;stroke:none;stroke-width:0.15465225;stroke-miterlimit:0.5;stroke-dasharray:none;stroke-dashoffset:0;stroke-opacity:1;paint-order:normal"
       id="path828"
       sodipodi:sides="5"
       sodipodi:cx="81.64285"
       sodipodi:cy="159.41665"
       sodipodi:r1="33.141422"
       sodipodi:r2="16.570711"
       sodipodi:arg1="2.3561945"
       sodipodi:arg2="2.984513"
       inkscape:flatsided="false"
       inkscape:rounded="0"
       inkscape:randomized="0"
       d="m 58.208328,182.85118 7.067827,-20.84229 -13.162526,-17.63812 22.006278,0.28127 12.707407,-17.96878 6.532801,21.01613 21.016135,6.53281 -17.968785,12.7074 0.281278,22.00628 -17.63812,-13.16253 z"
       inkscape:transform-center-x="-1.6020842"
       inkscape:transform-center-y="-1.6020881" />
    <path
       inkscape:transform-center-y="1.0372662"
       inkscape:transform-center-x="-0.49163227"
       d="m 137.4328,155.36612 3.37787,-9.96099 -6.29066,-8.42965 10.51728,0.13443 6.07315,-8.58767 3.12217,10.04407 10.04407,3.12217 -8.58767,6.07314 0.13443,10.51729 -8.42965,-6.29066 z"
       inkscape:randomized="0"
       inkscape:rounded="0"
       inkscape:flatsided="false"
       sodipodi:arg2="2.984513"
       sodipodi:arg1="2.3561945"
       sodipodi:r2="7.9195051"
       sodipodi:r1="15.83901"
       sodipodi:cy="144.16624"
       sodipodi:cx="148.63268"
       sodipodi:sides="5"
       id="path830"
       style="fill:#eeeeee;fill-opacity:1;stroke:none;stroke-width:0.0739117;stroke-miterlimit:0.5;stroke-dasharray:none;stroke-dashoffset:0;stroke-opacity:1;paint-order:normal"
       sodipodi:type="star"
       transform="rotate(21.235116,148.63268,144.16624)" />
    <path
       inkscape:transform-center-y="2.3311195"
       inkscape:transform-center-x="5.9001116"
       d="m 164.79762,316.65474 7.06783,-20.84229 -13.16253,-17.63813 22.00628,0.28128 12.70741,-17.96878 6.5328,21.01613 21.01613,6.5328 -17.96878,12.70741 0.28128,22.00628 -17.63812,-13.16253 z"
       inkscape:randomized="0"
       inkscape:rounded="0"
       inkscape:flatsided="false"
       sodipodi:arg2="2.984513"
       sodipodi:arg1="2.3561945"
       sodipodi:r2="16.570711"
       sodipodi:r1="33.141422"
       sodipodi:cy="293.22021"
       sodipodi:cx="188.23215"
       sodipodi:sides="5"
       id="path832"
       style="fill:#eeeeee;fill-opacity:1;stroke:none;stroke-width:0.15465225;stroke-miterlimit:0.5;stroke-dasharray:none;stroke-dashoffset:0;stroke-opacity:1;paint-order:normal"
       sodipodi:type="star"
       transform="matrix(1.9685642,-1.2110762,1.1538189,1.8754943,-495.52441,-36.272853)" />
    <path
       transform="matrix(0.12254244,0.12407474,-0.11820873,0.11674887,206.44128,95.079766)"
       sodipodi:type="star"
       style="fill:#eeeeee;fill-opacity:1;stroke:none;stroke-width:0.15465225;stroke-miterlimit:0.5;stroke-dasharray:none;stroke-dashoffset:0;stroke-opacity:1;paint-order:normal"
       id="path834"
       sodipodi:sides="5"
       sodipodi:cx="188.23215"
       sodipodi:cy="293.22021"
       sodipodi:r1="33.141422"
       sodipodi:r2="16.570711"
       sodipodi:arg1="2.3561945"
       sodipodi:arg2="2.984513"
       inkscape:flatsided="false"
       inkscape:rounded="0"
       inkscape:randomized="0"
       d="m 164.79762,316.65474 7.06783,-20.84229 -13.16253,-17.63813 22.00628,0.28128 12.70741,-17.96878 6.5328,21.01613 21.01613,6.5328 -17.96878,12.70741 0.28128,22.00628 -17.63812,-13.16253 z"
       inkscape:transform-center-x="0.50890429"
       inkscape:transform-center-y="-0.053052586" />
    <path
       transform="matrix(1.0303733,0.32853934,-0.31300662,0.9816592,232.09515,-198.31646)"
       sodipodi:type="star"
       style="fill:#eeeeee;fill-opacity:1;stroke:none;stroke-width:0.15465225;stroke-miterlimit:0.5;stroke-dasharray:none;stroke-dashoffset:0;stroke-opacity:1;paint-order:normal"
       id="path836"
       sodipodi:sides="5"
       sodipodi:cx="188.23215"
       sodipodi:cy="293.22021"
       sodipodi:r1="33.141422"
       sodipodi:r2="16.570711"
       sodipodi:arg1="2.3561945"
       sodipodi:arg2="2.984513"
       inkscape:flatsided="false"
       inkscape:rounded="0"
       inkscape:randomized="0"
       d="m 164.79762,316.65474 7.06783,-20.84229 -13.16253,-17.63813 22.00628,0.28128 12.70741,-17.96878 6.5328,21.01613 21.01613,6.5328 -17.96878,12.70741 0.28128,22.00628 -17.63812,-13.16253 z"
       inkscape:transform-center-x="-1.934466"
       inkscape:transform-center-y="1.7505114" />
    <path
       inkscape:transform-center-y="-0.63147184"
       inkscape:transform-center-x="-0.6627977"
       d="m 164.79762,316.65474 7.06783,-20.84229 -13.16253,-17.63813 22.00628,0.28128 12.70741,-17.96878 6.5328,21.01613 21.01613,6.5328 -17.96878,12.70741 0.28128,22.00628 -17.63812,-13.16253 z"
       inkscape:randomized="0"
       inkscape:rounded="0"
       inkscape:flatsided="false"
       sodipodi:arg2="2.984513"
       sodipodi:arg1="2.3561945"
       sodipodi:r2="16.570711"
       sodipodi:r1="33.141422"
       sodipodi:cy="293.22021"
       sodipodi:cx="188.23215"
       sodipodi:sides="5"
       id="path838"
       style="fill:#eeeeee;fill-opacity:1;stroke:none;stroke-width:0.15465225;stroke-miterlimit:0.5;stroke-dasharray:none;stroke-dashoffset:0;stroke-opacity:1;paint-order:normal"
       sodipodi:type="star"
       transform="matrix(0.41370944,0,0,0.39415004,204.54901,-64.887898)" />
    <path
       transform="matrix(0.65406138,0.29995535,-0.28577403,0.62313859,14.386348,-202.38947)"
       sodipodi:type="star"
       style="fill:#eeeeee;fill-opacity:1;stroke:none;stroke-width:0.15465225;stroke-miterlimit:0.5;stroke-dasharray:none;stroke-dashoffset:0;stroke-opacity:1;paint-order:normal"
       id="path840"
       sodipodi:sides="5"
       sodipodi:cx="188.23215"
       sodipodi:cy="293.22021"
       sodipodi:r1="33.141422"
       sodipodi:r2="16.570711"
       sodipodi:arg1="2.3561945"
       sodipodi:arg2="2.984513"
       inkscape:flatsided="false"
       inkscape:rounded="0"
       inkscape:randomized="0"
       d="m 164.79762,316.65474 7.06783,-20.84229 -13.16253,-17.63813 22.00628,0.28128 12.70741,-17.96878 6.5328,21.01613 21.01613,6.5328 -17.96878,12.70741 0.28128,22.00628 -17.63812,-13.16253 z"
       inkscape:transform-center-x="-0.43332836"
       inkscape:transform-center-y="2.0357641" />
    <path
       transform="matrix(0.63556885,-0.08423148,0.0851644,0.570573,240.56982,-101.90651)"
       sodipodi:type="star"
       style="fill:#eeeeee;fill-opacity:1;stroke:none;stroke-width:0.15465225;stroke-miterlimit:0.5;stroke-dasharray:none;stroke-dashoffset:0;stroke-opacity:1;paint-order:normal"
       id="path842"
       sodipodi:sides="5"
       sodipodi:cx="188.23215"
       sodipodi:cy="293.22021"
       sodipodi:r1="33.141422"
       sodipodi:r2="16.570711"
       sodipodi:arg1="2.3561945"
       sodipodi:arg2="2.984513"
       inkscape:flatsided="false"
       inkscape:rounded="0"
       inkscape:randomized="0"
       d="m 164.79762,316.65474 7.06783,-20.84229 -13.16253,-17.63813 22.00628,0.28128 12.70741,-17.96878 6.5328,21.01613 21.01613,6.5328 -17.96878,12.70741 0.28128,22.00628 -17.63812,-13.16253 z"
       inkscape:transform-center-x="-0.15678328"
       inkscape:transform-center-y="-1.7661361" />
    <path
       inkscape:transform-center-y="-0.03371118"
       inkscape:transform-center-x="0.32341857"
       d="m 164.79762,316.65474 7.06783,-20.84229 -13.16253,-17.63813 22.00628,0.28128 12.70741,-17.96878 6.5328,21.01613 21.01613,6.5328 -17.96878,12.70741 0.28128,22.00628 -17.63812,-13.16253 z"
       inkscape:randomized="0"
       inkscape:rounded="0"
       inkscape:flatsided="false"
       sodipodi:arg2="2.984513"
       sodipodi:arg1="2.3561945"
       sodipodi:r2="16.570711"
       sodipodi:r1="33.141422"
       sodipodi:cy="293.22021"
       sodipodi:cx="188.23215"
       sodipodi:sides="5"
       id="path844"
       style="fill:#eeeeee;fill-opacity:1;stroke:none;stroke-width:0.15465225;stroke-miterlimit:0.5;stroke-dasharray:none;stroke-dashoffset:0;stroke-opacity:1;paint-order:normal"
       sodipodi:type="star"
       transform="matrix(0.07787777,0.07885158,-0.07512363,0.07419586,20.553687,245.2269)" />
    <path
       sodipodi:type="spiral"
       style="fill:none;fill-rule:evenodd;stroke:#eeeeee;stroke-width:4.1173811;stroke-miterlimit:4;stroke-dasharray:none;stroke-opacity:1"
       id="path846"
       sodipodi:cx="98.889565"
       sodipodi:cy="81.817863"
       sodipodi:expansion="1"
       sodipodi:revolution="3"
       sodipodi:radius="39.430134"
       sodipodi:argument="-18.409714"
       sodipodi:t0="0"
       d="m 98.889565,81.817863 c 1.788795,0.841785 -0.252181,2.826567 -1.399102,2.973095 -3.108084,0.397081 -4.897856,-3.122769 -4.547087,-5.771298 0.627445,-4.737597 5.822177,-7.136249 10.143494,-6.121079 6.34171,1.489803 9.42303,8.551716 7.69507,14.515689 -2.3031,7.949038 -11.2911,11.729352 -18.887884,9.269064 C 82.334279,93.587313 77.848495,82.648363 81.051,73.423254 84.929662,62.25041 97.832326,57.055797 108.68328,61.006205 c 12.78747,4.655419 18.69291,19.529222 13.99104,32.004472 -5.4285,14.403173 -22.27815,21.020753 -36.37667,15.565033 C 70.278017,102.37658 62.947397,83.547909 69.158623,67.826847 76.12668,50.190191 96.936607,42.145884 114.27968,49.113828 c 19.2541,7.735739 28.01258,30.528567 20.28701,49.493255"
       transform="matrix(0.41247356,-0.53638607,0.53638607,0.41247356,-2.6106317,264.79053)" />
    <path
       transform="matrix(0.24443486,0.87325213,-0.87325213,0.24443486,247.00857,-37.355682)"
       d="m 98.889565,81.817863 c 1.788795,0.841785 -0.252182,2.826568 -1.399103,2.973096 -3.108085,0.397081 -4.897857,-3.12277 -4.547088,-5.7713 0.627445,-4.737598 5.822179,-7.136251 10.143496,-6.121081 6.34171,1.489804 9.42303,8.551719 7.69507,14.515694 -2.30309,7.94904 -11.2911,11.729355 -18.887886,9.269067 -9.55978,-3.096022 -14.045566,-14.034976 -10.84306,-23.260088 3.878664,-11.172847 16.781331,-16.367462 27.632286,-12.417053 12.78747,4.655421 18.69292,19.529229 13.99104,32.004482 -5.4285,14.40317 -22.27815,21.02076 -36.376674,15.56504 C 70.278008,102.37658 62.947386,83.54791 69.158614,67.826843 71.433175,62.069765 75.343525,57.01729 80.308247,53.326119"
       sodipodi:t0="0"
       sodipodi:argument="-18.409714"
       sodipodi:radius="34.015362"
       sodipodi:revolution="2.588022"
       sodipodi:expansion="1"
       sodipodi:cy="81.817863"
       sodipodi:cx="98.889565"
       id="path848"
       style="fill:none;fill-rule:evenodd;stroke:#eeeeee;stroke-width:5.78057432;stroke-miterlimit:4;stroke-dasharray:none;stroke-opacity:1"
       sodipodi:type="spiral" />
  </g>
</svg>
